<?xml version="1.0" encoding="UTF-8" standalone="no"?>
<svg
   width="885"
   height="780"
   version="1.1"
   id="svg1"
   sodipodi:docname="z.logo.2.0.svg"
   inkscape:version="1.4 (e7c3feb1, 2024-10-09)"
   xmlns:inkscape="http://www.inkscape.org/namespaces/inkscape"
   xmlns:sodipodi="http://sodipodi.sourceforge.net/DTD/sodipodi-0.dtd"
   xmlns="http://www.w3.org/2000/svg"
   xmlns:svg="http://www.w3.org/2000/svg">
  <sodipodi:namedview
     id="namedview1"
     pagecolor="#ffffff"
     bordercolor="#000000"
     borderopacity="0.25"
     inkscape:showpageshadow="2"
     inkscape:pageopacity="0.0"
     inkscape:pagecheckerboard="0"
     inkscape:deskcolor="#d1d1d1"
     inkscape:zoom="0.28950939"
     inkscape:cx="-208.97422"
     inkscape:cy="248.69659"
     inkscape:window-width="1552"
     inkscape:window-height="1013"
     inkscape:window-x="0"
     inkscape:window-y="44"
     inkscape:window-maximized="0"
     inkscape:current-layer="svg1" />
  <defs
     id="defs1" />
  <path
     style="fill:#0a2244;stroke:none"
     d="m 128,69 v 113 h 27 l 1,-85 h 587 v 86 h 28 V 68 l -643,1 m 455,98.43903 c -22.47784,3.53814 -38.59003,19.151 -54,34.56097 l -44,44 C 428.86462,302.13538 372.00659,357.92697 317.91049,416 294.85983,440.74524 264.34625,462.98401 246.46683,492 216.58223,540.49884 254.52248,611.46741 314,605.83026 360.37115,601.4353 390.04993,559.95007 421,529 473.5051,476.4949 525.51422,423.48578 578,371 c 16.51245,-16.51245 32.50061,-33.50061 49,-50 11.35706,-11.35703 25.0351,-23.27435 33.53241,-37 C 695.65997,227.25891 648.6394,157.10706 583,167.43903 M 494,170 H 357 c -23.74127,0 -50.66141,-3.69354 -73,5.87268 -22.06891,9.45075 -39.43858,28.61871 -45.10107,52.12732 -9.0084,37.39954 15.46914,80.651 53.10107,90.10492 44.98383,11.30087 71.45538,-15.5603 101,-45.10492 17.17099,-17.17102 34.81894,-33.81891 52,-51 15.67715,-15.67712 37.90649,-32.80859 49,-52 M 414.43929,599.56071 C 435.66164,600.02993 458.55765,601 479,601 h 84 c 37.92401,0 73.20038,0.75421 96.3009,-35 25.77265,-39.89001 5.30139,-93.19537 -37.3009,-111.12424 -12.88513,-5.4226 -32.27692,-5.60165 -46,-3.57483 -15.7229,2.32221 -29.31042,16.06095 -40,26.69831 C 519.14087,494.776 501.83801,511.16199 485,528 m -357,70 -1,114 H 771 V 598 h -28 v 86 H 313 200 170 c -3.61792,0 -9.52014,1.08215 -12.6821,-1.02777 C 152.70139,679.89166 155,666.87897 155,662 v -64 z"
     id="path1" />
</svg>
